<?xml version="1.0" encoding="UTF-8"?>
<!DOCTYPE svg PUBLIC "-//W3C//DTD SVG 1.1//EN" "http://www.w3.org/Graphics/SVG/1.1/DTD/svg11.dtd">
<!-- Creator: CorelDRAW 2018 (64 Bit Versão de avaliação) -->
<svg xmlns="http://www.w3.org/2000/svg" xml:space="preserve" width="34.4576mm" height="34.4576mm" version="1.1" style="shape-rendering:geometricPrecision; text-rendering:geometricPrecision; image-rendering:optimizeQuality; fill-rule:evenodd; clip-rule:evenodd"
viewBox="0 0 655.12 655.12"
 xmlns:xlink="http://www.w3.org/1999/xlink">
 <defs>
  <style type="text/css">
   <![CDATA[
    .fil2 {fill:none}
    .fil1 {fill:#FEFEFE}
    .fil0 {fill:#F95D24}
   ]]>
  </style>
   <clipPath id="id0">
    <path d="M327.56 0c180.91,0 327.56,146.65 327.56,327.56 0,180.91 -146.65,327.56 -327.56,327.56 -180.91,0 -327.56,-146.65 -327.56,-327.56 0,-180.91 146.65,-327.56 327.56,-327.56z"/>
   </clipPath>
 </defs>
 <g id="Camada_x0020_1">
  <metadata id="CorelCorpID_0Corel-Layer"/>
  <path class="fil0" d="M327.56 0c180.91,0 327.56,146.65 327.56,327.56 0,180.91 -146.65,327.56 -327.56,327.56 -180.91,0 -327.56,-146.65 -327.56,-327.56 0,-180.91 146.65,-327.56 327.56,-327.56z"/>
  <g style="clip-path:url(#id0)">
   <g id="_1959761411632">
    <path id="1" class="fil1" d="M558.37 213.63c2.16,0 4.3,0.06 6.43,0.19 27.75,1.61 52.73,13.52 71.18,31.97 19.8,19.8 32.07,47.11 32.15,77.29l0 0 0 0.22 0 0.1 0 0 0 109.42 -65.82 0 0 -109.52c-0.03,-12.1 -4.94,-23.05 -12.87,-30.97 -7.95,-7.95 -18.94,-12.87 -31.07,-12.87l0 -0.13 -29.56 0 0 -65.7 29.56 0zm-155.15 65.49c-12.14,0 -23.12,4.92 -31.07,12.87 -7.95,7.94 -12.87,18.93 -12.87,31.07 0,12.14 4.92,23.12 12.87,31.07 7.95,7.94 18.94,12.87 31.07,12.87 12.16,0 23.12,-4.84 31,-12.67 5.62,-5.58 9.75,-12.62 11.73,-20.47 1.83,-7.25 1.2,-14.85 1.2,-22.3l0 -12.59 0 -11.87 0 -7.98 0 -42.99 0 -22.83 0 -0.7 0 -73.88 65.83 0 0 69.97 0 4.6 0 0 0 22.83 0 42.99 0 4.08 0 34.97c0,4.35 -0.11,8.61 -0.43,12.96 -2,27.26 -13.88,51.69 -32.05,69.73 -19.9,19.76 -47.22,31.96 -77.28,31.96 -30.31,0 -57.75,-12.29 -77.62,-32.15 -19.86,-19.86 -32.15,-47.3 -32.15,-77.61 0,-30.3 12.28,-57.75 32.15,-77.61 19.86,-19.87 47.3,-32.15 77.62,-32.15l28.09 0 0 65.82 -28.09 0zm-410.79 87.87l65.82 0 0 -44.49 0.14 -0.13c0.21,-30.23 12.54,-57.47 32.34,-77.12 19.9,-19.76 47.22,-31.96 77.29,-31.96 30.31,0 57.74,12.28 77.61,32.15 19.86,19.86 32.16,47.31 32.16,77.61 0,30.31 -12.29,57.75 -32.16,77.61 -19.86,19.86 -47.3,32.15 -77.61,32.15l-28.6 0 0 -65.82 28.6 0c12.13,0 23.12,-4.92 31.07,-12.87 7.95,-7.95 12.86,-18.93 12.86,-31.07 0,-12.13 -4.91,-23.12 -12.86,-31.07 -7.95,-7.95 -18.94,-12.87 -31.07,-12.87 -12.16,0 -23.12,4.84 -31,12.67 -6.55,6.49 -11.07,14.97 -12.54,24.41 -0.74,4.73 -0.9,9.83 -0.9,14.63l0 13.92 0 1.05 0 5.33 0 7.01 0 3.42 0 89.03 0 56.8 -65.32 0 -0.01 -74.58 -65.82 0 0 -65.82z"/>
   </g>
  </g>
  <path class="fil2" d="M327.56 0c180.91,0 327.56,146.65 327.56,327.56 0,180.91 -146.65,327.56 -327.56,327.56 -180.91,0 -327.56,-146.65 -327.56,-327.56 0,-180.91 146.65,-327.56 327.56,-327.56z"/>
 </g>
</svg>
